<svg aria-hidden="true" style="position: absolute; width: 0; height: 0; overflow: hidden;" version="1.1" xmlns="http://www.w3.org/2000/svg" xmlns:xlink="http://www.w3.org/1999/xlink">
<defs>
<symbol id="icon-feather" viewBox="0 0 16 16">
<path d="M13.538 1.332c-0.559-0.308-2.1-1.067-3.105-1.276-1.044-0.217-2.598 3.86-3.092 3.878-0.801 0.029-0.097-2.784 0.664-3.935-1.188 0.793-3.299 1.858-3.793 3.083-0.955 2.367 1.769 6.628 0.316 6.873-0.453 0.076-1.708-2.938-2.034-3.858-0.921 1.76-0.228 3.407 0.534 5.465v0.128c-0.029 0.111-0.054 0.218-0.081 0.326h0.081v2.987c0 0.55 0.445 0.996 0.996 0.996s0.996-0.445 0.996-0.996v-3.018c1.858-0.209 2.732 0.4 4.005-2.013-0.777 0.321-2.328-0.658-2.006-1.12 0.647-0.93 3.29 0.053 4.975-2.807-2.667 0.711-2.982-0.308-3.007-0.68-0.053-0.769 2.666-0.362 3.905-1.431 0.719-0.62 1.58-2.088 0.647-2.604z"></path>
</symbol>
<symbol id="icon-leaf" viewBox="0 0 16 16">
<path d="M15.802 2.102c-1.73-1.311-4.393-2.094-7.124-2.094-3.377 0-6.129 1.179-7.549 3.235-0.667 0.965-1.036 2.109-1.097 3.398-0.054 1.148 0.139 2.418 0.573 3.784 1.482-4.444 5.622-7.923 10.395-7.923 0 0-4.466 1.175-7.274 4.816-0.002 0.002-0.039 0.048-0.103 0.136-0.564 0.754-1.055 1.612-1.423 2.583-0.623 1.482-1.2 3.515-1.2 5.965h2c0 0-0.304-1.91 0.224-4.106 0.873 0.118 1.654 0.177 2.357 0.177 1.839 0 3.146-0.398 4.115-1.252 0.868-0.765 1.347-1.794 1.854-2.882 0.774-1.663 1.651-3.547 4.198-5.002 0.146-0.083 0.24-0.234 0.251-0.402s-0.063-0.329-0.197-0.431z"></path>
</symbol>
<symbol id="icon-trash" viewBox="0 0 20 20">
<path d="M3.389 7.113l1.101 10.908c0.061 0.461 2.287 1.977 5.51 1.979 3.225-0.002 5.451-1.518 5.511-1.979l1.102-10.908c-1.684 0.942-4.201 1.387-6.613 1.387-2.41 0-4.928-0.445-6.611-1.387zM13.168 1.51l-0.859-0.951c-0.332-0.473-0.692-0.559-1.393-0.559h-1.831c-0.7 0-1.061 0.086-1.392 0.559l-0.859 0.951c-2.57 0.449-4.434 1.64-4.434 2.519v0.17c0 1.547 3.403 2.801 7.6 2.801 4.198 0 7.601-1.254 7.601-2.801v-0.17c0-0.879-1.863-2.070-4.433-2.519zM12.070 4.34l-1.070-1.34h-2l-1.068 1.34h-1.7c0 0 1.862-2.221 2.111-2.522 0.19-0.23 0.384-0.318 0.636-0.318h2.043c0.253 0 0.447 0.088 0.637 0.318 0.248 0.301 2.111 2.522 2.111 2.522h-1.7z"></path>
</symbol>
</defs>
</svg>
